<svg xmlns="http://www.w3.org/2000/svg" viewBox="0 0 100 100">
  <circle cx="50" cy="46" r="46" fill="#0099cc"/>
  <ellipse cx="50" cy="62" rx="36" ry="30" fill="white"/>
  <circle cx="37" cy="38" r="12" fill="white"/>
  <circle cx="39" cy="41" r="7" fill="#111"/>
  <circle cx="35" cy="37" r="2.5" fill="white"/>
  <circle cx="63" cy="38" r="12" fill="white"/>
  <circle cx="65" cy="41" r="7" fill="#111"/>
  <circle cx="61" cy="37" r="2.5" fill="white"/>
  <circle cx="50" cy="54" r="7" fill="#cc2200"/>
  <line x1="50" y1="61" x2="50" y2="69" stroke="#333" stroke-width="3"/>
  <path d="M32 72 Q50 83 68 72" fill="none" stroke="#333" stroke-width="3" stroke-linecap="round"/>
  <line x1="4" y1="53" x2="37" y2="55" stroke="#333" stroke-width="2"/>
  <line x1="4" y1="62" x2="37" y2="62" stroke="#333" stroke-width="2"/>
  <line x1="4" y1="71" x2="37" y2="68" stroke="#333" stroke-width="2"/>
  <line x1="96" y1="53" x2="63" y2="55" stroke="#333" stroke-width="2"/>
  <line x1="96" y1="62" x2="63" y2="62" stroke="#333" stroke-width="2"/>
  <line x1="96" y1="71" x2="63" y2="68" stroke="#333" stroke-width="2"/>
  <rect x="16" y="87" width="68" height="10" rx="5" fill="#dd2233"/>
  <circle cx="50" cy="97" r="6" fill="#ffcc00"/>
</svg>
